HIERARCHY
ROOT Hips
{
	OFFSET 0.00000 0.00000 0.00000
	CHANNELS 6 Xposition Yposition Zposition Zrotation Yrotation Xrotation 
	JOINT LHipJoint
	{
		OFFSET 0 0 0
		CHANNELS 3 Zrotation Yrotation Xrotation
		JOINT LeftUpLeg
		{
			OFFSET 1.61328 -1.70571 0.84375
			CHANNELS 3 Zrotation Yrotation Xrotation
			JOINT LeftLeg
			{
				OFFSET 2.32400 -6.38513 0.00000
				CHANNELS 3 Zrotation Yrotation Xrotation
				JOINT LeftFoot
				{
					OFFSET 2.58843 -7.11166 0.00000
					CHANNELS 3 Zrotation Yrotation Xrotation
					JOINT LeftToeBase
					{
						OFFSET 0.17200 -0.47257 2.47970
						CHANNELS 3 Zrotation Yrotation Xrotation
						End Site
						{
							OFFSET 0.00000 -0.00000 1.26912
						}
					}
				}
			}
		}
	}
	JOINT RHipJoint
	{
		OFFSET 0 0 0
		CHANNELS 3 Zrotation Yrotation Xrotation
		JOINT RightUpLeg
		{
			OFFSET -1.49930 -1.70570 0.84375
			CHANNELS 3 Zrotation Yrotation Xrotation
			JOINT RightLeg
			{
				OFFSET -2.30458 -6.33178 0.00000
				CHANNELS 3 Zrotation Yrotation Xrotation
				JOINT RightFoot
				{
					OFFSET -2.62261 -7.20556 0.00000
					CHANNELS 3 Zrotation Yrotation Xrotation
					JOINT RightToeBase
					{
						OFFSET -0.18709 -0.51403 2.51340
						CHANNELS 3 Zrotation Yrotation Xrotation
						End Site
						{
							OFFSET -0.00000 -0.00000 1.28858
						}
					}
				}
			}
		}
	}
	JOINT LowerBack
	{
		OFFSET 0 0 0
		CHANNELS 3 Zrotation Yrotation Xrotation
		JOINT Spine
		{
			OFFSET -0.03798 2.19274 -0.19881
			CHANNELS 3 Zrotation Yrotation Xrotation
			JOINT Spine1
			{
				OFFSET -0.00024 2.19460 0.05248
				CHANNELS 3 Zrotation Yrotation Xrotation
				JOINT Neck
				{
					OFFSET 0 0 0
					CHANNELS 3 Zrotation Yrotation Xrotation
					JOINT Neck1
					{
						OFFSET -0.00746 1.82323 0.17286
						CHANNELS 3 Zrotation Yrotation Xrotation
						JOINT Head
						{
							OFFSET 0.11826 1.82121 -0.27841
							CHANNELS 3 Zrotation Yrotation Xrotation
							End Site
							{
								OFFSET 0.03496 1.85543 -0.11495
							}
						}
					}
				}
				JOINT LeftShoulder
				{
					OFFSET 0 0 0
					CHANNELS 3 Zrotation Yrotation Xrotation
					JOINT LeftArm
					{
						OFFSET 3.71926 0.78840 0.25473
						CHANNELS 3 Zrotation Yrotation Xrotation
						JOINT LeftForeArm
						{
							OFFSET 5.37587 -0.00000 0.00000
							CHANNELS 3 Zrotation Yrotation Xrotation
							JOINT LeftHand
							{
								OFFSET 3.35977 -0.00000 0.00000
								CHANNELS 3 Zrotation Yrotation Xrotation
								JOINT LeftFingerBase
								{
									OFFSET 0 0 0
									CHANNELS 3 Zrotation Yrotation Xrotation
									JOINT LeftHandIndex1
									{
										OFFSET 0.56186 -0.00000 0.00000
										CHANNELS 3 Zrotation Yrotation Xrotation
										End Site
										{
											OFFSET 0.45299 -0.00000 0.00000
										}
									}
								}
								JOINT LThumb
								{
									OFFSET 0 0 0
									CHANNELS 3 Zrotation Yrotation Xrotation
									End Site
									{
										OFFSET 0.45990 -0.00000 0.45990
									}
								}
							}
						}
					}
				}
				JOINT RightShoulder
				{
					OFFSET 0 0 0
					CHANNELS 3 Zrotation Yrotation Xrotation
					JOINT RightArm
					{
						OFFSET -3.65136 0.56074 0.01624
						CHANNELS 3 Zrotation Yrotation Xrotation
						JOINT RightForeArm
						{
							OFFSET -5.22819 -0.00000 0.00000
							CHANNELS 3 Zrotation Yrotation Xrotation
							JOINT RightHand
							{
								OFFSET -3.40764 -0.00000 0.00000
								CHANNELS 3 Zrotation Yrotation Xrotation
								JOINT RightFingerBase
								{
									OFFSET 0 0 0
									CHANNELS 3 Zrotation Yrotation Xrotation
									JOINT RightHandIndex1
									{
										OFFSET -0.58325 -0.00000 0.00000
										CHANNELS 3 Zrotation Yrotation Xrotation
										End Site
										{
											OFFSET -0.47024 -0.00000 0.00000
										}
									}
								}
								JOINT RThumb
								{
									OFFSET 0 0 0
									CHANNELS 3 Zrotation Yrotation Xrotation
									End Site
									{
										OFFSET -0.47742 -0.00000 0.47742
									}
								}
							}
						}
					}
				}
			}
		}
	}
}
MOTION
Frames: 9
Frame Time: .0083333
49.6448 16.5791 -6.9741 -23.7119 -83.8336 23.9329 0.0000 0.0000 0.0000 -17.8570 2.5027 -10.0506 2.4160 9.6835 27.9578 1.0500 0.8269 -19.6808 0.0893 -1.9275 -5.3054 0.0000 0.0000 0.0000 21.1741 -0.7453 -9.7159 -3.0109 -10.7127 31.3169 -2.0943 6.1078 -26.1280 -1.1985 -6.9463 19.5565 0.7161 -0.1324 -0.7926 1.1056 -0.2739 3.3647 0.7245 -0.1498 3.9073 -3.5247 -3.9209 -10.0432 7.5851 -5.4955 6.5526 2.5369 -2.4400 3.9070 0.0000 -0.0000 0.0000 -89.8043 2.6760 18.6089 16.1434 -25.7147 -3.7080 -0.0000 0.0000 -9.3574 17.7515 15.8137 4.9858 -7.1250 0.0000 -0.0000 -9.4006 46.3245 -0.3100 0.0000 -0.0000 0.0000 86.4640 -1.9390 23.3625 -16.1990 25.7897 -3.7321 0.0000 -0.0000 -3.8578 -20.1702 4.5333 -1.6631 7.1250 -0.0000 -0.0000 4.8699 -25.1504 2.3466
49.6341 16.5742 -6.9554 -24.9970 -83.8846 25.2794 0.0000 0.0000 0.0000 -17.8120 2.5139 -10.1703 2.4457 9.7384 28.1337 1.0672 0.8325 -19.8413 0.0908 -1.9438 -5.3504 0.0000 0.0000 0.0000 21.1957 -0.7707 -9.7320 -3.0048 -10.7028 31.2841 -2.0958 6.3381 -26.1153 -1.1631 -6.8464 19.2610 0.7983 -0.1368 -0.7721 1.1337 -0.2803 3.2847 0.7072 -0.1505 3.8127 -3.4768 -3.8742 -10.0054 7.5680 -5.4349 6.4947 2.5291 -2.4117 3.8780 0.0000 0.0000 0.0000 -89.8813 2.9170 18.3688 16.1114 -25.6715 -3.6941 -0.0000 0.0000 -9.3295 17.8144 15.7811 4.9946 -7.1250 0.0000 -0.0000 -9.3337 46.2993 -0.3019 0.0000 0.0000 0.0000 86.3278 -2.0954 23.6991 -16.2967 25.9213 -3.7747 0.0000 -0.0000 -3.9657 -20.1755 4.5233 -1.6599 7.1250 -0.0000 -0.0000 4.8662 -25.1608 2.3436
49.6226 16.5696 -6.9362 -26.2757 -83.9487 26.6226 0.0000 0.0000 0.0000 -17.7815 2.5293 -10.2706 2.4706 9.7843 28.2811 1.0848 0.8537 -20.0094 0.0927 -1.9631 -5.4038 0.0000 0.0000 0.0000 21.2101 -0.7572 -9.7383 -2.9998 -10.6948 31.2573 -2.1014 6.5567 -26.1329 -1.1262 -6.7406 18.9491 0.8612 -0.1430 -0.7481 1.1598 -0.2882 3.1982 0.6985 -0.1526 3.7093 -3.4232 -3.8209 -9.9757 7.5470 -5.3645 6.4188 2.5198 -2.3789 3.8440 0.0000 -0.0000 0.0000 -89.9646 3.1689 18.1020 16.0679 -25.6126 -3.6753 -0.0000 0.0000 -9.2935 17.9626 15.5812 4.9768 -7.1250 0.0000 -0.0000 -9.1448 46.1135 -0.2534 0.0000 -0.0000 0.0000 86.1963 -2.2592 24.0195 -16.3907 26.0475 -3.8159 0.0000 -0.0000 -4.0687 -20.1795 4.5154 -1.6573 7.1250 -0.0000 -0.0000 4.8633 -25.1691 2.3413
49.6103 16.5653 -6.9165 -27.5480 -84.0288 27.9635 0.0000 0.0000 0.0000 -17.7684 2.5500 -10.3509 2.4907 9.8210 28.3991 1.1024 0.8916 -20.1840 0.0950 -1.9882 -5.4730 0.0000 0.0000 0.0000 21.2150 -0.7023 -9.7358 -2.9964 -10.6893 31.2390 -2.1112 6.7592 -26.1798 -1.0885 -6.6307 18.6259 0.9043 -0.1509 -0.7213 1.1823 -0.2976 3.1076 0.6972 -0.1560 3.6002 -3.3614 -3.7600 -9.9577 7.5234 -5.2830 6.3164 2.5090 -2.3407 3.8032 0.0000 -0.0000 0.0000 -90.0501 3.4256 17.8163 16.0103 -25.5346 -3.6504 -0.0000 0.0000 -9.2568 18.1925 15.2283 4.9337 -7.1250 0.0000 -0.0000 -8.8436 45.7801 -0.1716 0.0000 -0.0000 0.0000 86.0713 -2.4232 24.3238 -16.4794 26.1663 -3.8549 0.0000 -0.0000 -4.1692 -20.1855 4.5099 -1.6559 7.1250 -0.0000 -0.0000 4.8589 -25.1747 2.3385
49.5972 16.5612 -6.8961 -28.8200 -84.1285 29.3086 0.0000 0.0000 0.0000 -17.7754 2.5753 -10.4110 2.5061 9.8490 28.4890 1.1210 0.9410 -20.3695 0.0969 -2.0077 -5.5269 0.0000 0.0000 0.0000 21.2078 -0.6061 -9.7273 -2.9949 -10.6867 31.2305 -2.1242 6.9372 -26.2501 -1.0477 -6.5091 18.2689 0.9284 -0.1586 -0.6964 1.1988 -0.3055 3.0124 0.7003 -0.1592 3.4875 -3.2947 -3.6919 -9.9378 7.5048 -5.1905 6.1747 2.4999 -2.2976 3.7496 -0.0000 -0.0000 0.0000 -90.1361 3.6908 17.5172 15.9404 -25.4398 -3.6203 -0.0000 0.0000 -9.2131 18.3781 14.9445 4.8970 -7.1250 0.0000 -0.0000 -8.6033 45.5111 -0.1094 -0.0000 -0.0000 0.0000 85.9574 -2.5897 24.6055 -16.5620 26.2767 -3.8914 0.0000 -0.0000 -4.2725 -20.1966 4.5019 -1.6539 7.1250 -0.0000 -0.0000 4.8508 -25.1828 2.3336
49.5832 16.5574 -6.8750 -30.1094 -84.2465 30.6737 0.0000 0.0000 0.0000 -17.8009 2.6048 -10.4507 2.5171 9.8690 28.5536 1.1404 0.9960 -20.5637 0.0977 -2.0160 -5.5500 0.0000 0.0000 0.0000 21.1893 -0.4702 -9.7114 -2.9953 -10.6874 31.2329 -2.1399 7.0907 -26.3400 -1.0070 -6.3853 17.9065 0.9324 -0.1665 -0.6702 1.2117 -0.3129 2.9118 0.7112 -0.1625 3.3688 -3.2336 -3.6171 -9.9047 7.4985 -5.0871 5.9890 2.4965 -2.2499 3.6805 0.0000 0.0000 0.0000 -90.2235 3.9658 17.2126 15.8564 -25.3255 -3.5843 -0.0000 0.0000 -9.1666 18.4814 14.7566 4.8661 -7.1250 0.0000 -0.0000 -8.4634 45.3300 -0.0694 0.0000 0.0000 0.0000 85.8510 -2.7615 24.8621 -16.6385 26.3787 -3.9254 0.0000 -0.0000 -4.3773 -20.2080 4.4888 -1.6501 7.1250 -0.0000 -0.0000 4.8425 -25.1964 2.3281
49.5682 16.5537 -6.8531 -31.4250 -84.3820 32.0646 0.0000 0.0000 0.0000 -17.8455 2.6417 -10.4716 2.5247 9.8827 28.5976 1.1607 1.0549 -20.7663 0.0978 -2.0164 -5.5509 0.0000 0.0000 0.0000 21.1579 -0.3030 -9.6870 -2.9978 -10.6915 31.2464 -2.1578 7.2131 -26.4462 -0.9640 -6.2513 17.5155 0.9199 -0.1760 -0.6468 1.2210 -0.3220 2.8132 0.7274 -0.1671 3.2538 -3.1816 -3.5347 -9.8735 7.5088 -4.9714 5.7627 2.5006 -2.1964 3.5996 -0.0000 0.0000 0.0000 -90.3138 4.2376 16.8978 15.7559 -25.1886 -3.5414 -0.0000 0.0000 -9.1097 18.5539 14.5210 4.8105 -7.1250 0.0000 -0.0000 -8.3416 45.0957 -0.0198 -0.0000 0.0000 0.0000 85.7497 -2.9264 25.0980 -16.7077 26.4708 -3.9562 0.0000 -0.0000 -4.4882 -20.2209 4.4700 -1.6444 7.1250 -0.0000 -0.0000 4.8332 -25.2160 2.3214
49.5524 16.5500 -6.8303 -32.7753 -84.5287 33.4894 0.0000 0.0000 0.0000 -17.9050 2.6846 -10.4796 2.5298 9.8919 28.6272 1.1817 1.1136 -20.9727 0.0971 -2.0097 -5.5325 0.0000 0.0000 0.0000 21.1175 -0.1043 -9.6528 -3.0025 -10.6992 31.2719 -2.1789 7.3020 -26.5752 -0.9188 -6.1073 17.0962 0.8950 -0.1872 -0.6234 1.2258 -0.3328 2.7124 0.7460 -0.1728 3.1366 -3.1344 -3.4475 -9.8267 7.5325 -4.8473 5.4906 2.5103 -2.1396 3.5024 -0.0000 0.0000 0.0000 -90.4002 4.5141 16.5859 15.6402 -25.0303 -3.4923 -0.0000 0.0000 -9.0350 18.5767 14.2772 4.7380 -7.1250 0.0000 -0.0000 -8.2645 44.8464 0.0316 -0.0000 0.0000 0.0000 85.6567 -3.0942 25.3117 -16.7722 26.5565 -3.9850 0.0000 -0.0000 -4.6084 -20.2266 4.4472 -1.6365 7.1250 -0.0000 -0.0000 4.8293 -25.2400 2.3168
49.5361 16.5461 -6.8068 -34.2126 -84.6858 34.9993 0.0000 0.0000 0.0000 -17.9746 2.7374 -10.4804 2.5336 9.8988 28.6496 1.2033 1.1707 -21.1824 0.0964 -2.0024 -5.5124 0.0000 0.0000 0.0000 21.0725 0.1265 -9.6098 -3.0100 -10.7111 31.3118 -2.2034 7.3571 -26.7263 -0.8715 -5.9522 16.6457 0.8617 -0.1989 -0.5970 1.2264 -0.3440 2.6113 0.7651 -0.1787 3.0175 -3.0925 -3.3561 -9.7776 7.5695 -4.7164 5.1873 2.5254 -2.0798 3.3957 0.0000 -0.0000 0.0000 -90.4794 4.7841 16.2771 15.5045 -24.8442 -3.4351 -0.0000 0.0000 -8.9343 18.4860 14.2216 4.6954 -7.1250 0.0000 -0.0000 -8.3345 44.7782 0.0460 0.0000 -0.0000 0.0000 85.5728 -3.2597 25.5027 -16.8307 26.6340 -4.0111 0.0000 -0.0000 -4.7358 -20.2267 4.4221 -1.6273 7.1250 -0.0000 -0.0000 4.8298 -25.2667 2.3140
